<?xml version="1.0" encoding="UTF-8" standalone="no"?>
<!-- Generator: Adobe Illustrator 15.0.2, SVG Export Plug-In . SVG Version: 6.00 Build 0)  -->

<svg
   xmlns:dc="http://purl.org/dc/elements/1.1/"
   xmlns:cc="http://creativecommons.org/ns#"
   xmlns:rdf="http://www.w3.org/1999/02/22-rdf-syntax-ns#"
   xmlns:svg="http://www.w3.org/2000/svg"
   xmlns="http://www.w3.org/2000/svg"
   xmlns:sodipodi="http://sodipodi.sourceforge.net/DTD/sodipodi-0.dtd"
   xmlns:inkscape="http://www.inkscape.org/namespaces/inkscape"
   version="1.1"
   id="Layer_1"
   x="0px"
   y="0px"
   width="64"
   height="64"
   viewBox="0 0 64 64"
   enable-background="new 0 0 1024 1024"
   xml:space="preserve"
   inkscape:version="0.48.3.1 r9886"
   sodipodi:docname="logo.svg"
   inkscape:export-filename="logo-64.png"
   inkscape:export-xdpi="90"
   inkscape:export-ydpi="90"><metadata
   id="metadata13"><rdf:RDF><cc:Work
       rdf:about=""><dc:format>image/svg+xml</dc:format><dc:type
         rdf:resource="http://purl.org/dc/dcmitype/StillImage" /><dc:title /></cc:Work></rdf:RDF></metadata><defs
   id="defs11"><filter
     id="filter3943"
     y="-0.25"
     height="1.5"
     inkscape:menu-tooltip="Darkens the edge with an inner blur and adds a flexible glow"
     inkscape:menu="Shadows and Glows"
     inkscape:label="Dark and Glow"
     color-interpolation-filters="sRGB"><feGaussianBlur
       id="feGaussianBlur3945"
       stdDeviation="5"
       result="result6" /><feComposite
       id="feComposite3947"
       in2="result6"
       result="result8"
       in="SourceGraphic"
       operator="atop" /><feComposite
       id="feComposite3949"
       in2="SourceAlpha"
       result="result9"
       operator="over"
       in="result8" /><feColorMatrix
       id="feColorMatrix3951"
       values="1 0 0 0 0 0 1 0 0 0 0 0 1 0 0 0 0 0 1 0 "
       result="result10" /><feBlend
       id="feBlend3953"
       in2="result6"
       in="result10"
       mode="normal" /></filter></defs><sodipodi:namedview
   pagecolor="#ffffff"
   bordercolor="#666666"
   borderopacity="1"
   objecttolerance="10"
   gridtolerance="10"
   guidetolerance="10"
   inkscape:pageopacity="0"
   inkscape:pageshadow="2"
   inkscape:window-width="1503"
   inkscape:window-height="1028"
   id="namedview9"
   showgrid="false"
   inkscape:zoom="1.8046546"
   inkscape:cx="36.306801"
   inkscape:cy="24.725243"
   inkscape:window-x="194"
   inkscape:window-y="198"
   inkscape:window-maximized="0"
   inkscape:current-layer="Layer_1" />

<path
   sodipodi:type="arc"
   style="fill:#000060;fill-opacity:1;stroke:none"
   id="path3781"
   sodipodi:cx="34.549347"
   sodipodi:cy="26.939358"
   sodipodi:rx="27.776457"
   sodipodi:ry="30.363853"
   d="m 62.325804,26.939358 a 27.776457,30.363853 0 1 1 -55.5529139,0 27.776457,30.363853 0 1 1 55.5529139,0 z"
   transform="matrix(0,-1.1160531,1.0209508,0,4.4962411,-9.441094)" /><path
   d="m 49.368014,-62.899662 -17.372149,-10.028035 -17.363879,10.039926 0.0083,31.615468 17.353339,1.826492 17.36388,-1.879292 z"
   id="polygon7"
   inkscape:connector-curvature="0"
   sodipodi:nodetypes="ccccccc"
   style="fill:#ffffff" /><rect
   style="fill:#000060;fill-opacity:1;fill-rule:evenodd;stroke:none"
   id="rect3774"
   width="57.802135"
   height="6.9235201"
   x="18.88369"
   y="28.53824"
   transform="matrix(0,-1,1,0,0,0)" /><path
   style="fill:#999999"
   sodipodi:nodetypes="ccccccc"
   inkscape:connector-curvature="0"
   id="path3783"
   d="m -11.200341,49.368014 0.02804,-17.372149 -0.03993,-17.363879 -33.615468,0.0083 0.173508,17.353339 -0.120708,17.36388 z" /><path
   style="fill:#00c032;fill-opacity:1;stroke:none"
   inkscape:connector-curvature="0"
   stroke-miterlimit="4"
   id="path4068"
   d="m -77.135619,24.72499 11.227016,17.116577 C -60.188157,26.522662 -53.185528,12.429864 -41.929912,-0.94989496 -50.353872,5.294813 -59.639722,17.153148 -67.571862,31.82654 l -9.563757,-7.10155 z" /><path
   transform="matrix(0,-1.1160531,1.0209508,0,4.4962411,70.55891)"
   d="m 62.325804,26.939358 a 27.776457,30.363853 0 1 1 -55.5529139,0 27.776457,30.363853 0 1 1 55.5529139,0 z"
   sodipodi:ry="30.363853"
   sodipodi:rx="27.776457"
   sodipodi:cy="26.939358"
   sodipodi:cx="34.549347"
   id="path3955"
   style="fill:#000060;fill-opacity:1;stroke:none"
   sodipodi:type="arc" /><path
   style="fill:#ffffff"
   sodipodi:nodetypes="ccccccc"
   inkscape:connector-curvature="0"
   id="path3957"
   d="M 49.368014,17.100338 31.995865,7.072303 14.631986,17.112229 l 0.0083,31.615471 17.353339,1.82649 17.36388,-1.87929 z" /><rect
   transform="matrix(0,-1,1,0,0,0)"
   y="28.53824"
   x="-61.116302"
   height="6.9235201"
   width="57.802135"
   id="rect3959"
   style="fill:#000060;fill-opacity:1;fill-rule:evenodd;stroke:none" /><path
   style="opacity:0.5;fill:#008021;fill-opacity:1;fill-rule:evenodd;stroke:none;filter:url(#filter3943)"
   d="m 52.09375,18.6875 -20.90625,33 L 20.84375,40.03125 18.3125,42.4375 31.9375,59.875 34,56.28125 34.5,55.4375 54.3125,21.125 52.09375,18.6875 z"
   id="rect3787"
   inkscape:connector-curvature="0" /><path
   id="path3913"
   d="m 52.09375,18.6875 -20.90625,33 L 20.84375,40.03125 18.3125,42.4375 31.9375,59.875 34,56.28125 34.5,55.4375 54.3125,21.125 52.09375,18.6875 z"
   style="fill:#008021;fill-opacity:1;fill-rule:evenodd;stroke:none"
   inkscape:connector-curvature="0" /></svg>